<?xml version="1.0" standalone="no"?>
<!DOCTYPE svg PUBLIC "-//W3C//DTD SVG 20010904//EN"
 "http://www.w3.org/TR/2001/REC-SVG-20010904/DTD/svg10.dtd">
<svg version="1.0" xmlns="http://www.w3.org/2000/svg"
 width="328.000000pt" height="456.000000pt" viewBox="0 0 328.000000 456.000000"
 preserveAspectRatio="xMidYMid meet">

<g transform="translate(0.000000,456.000000) scale(0.100000,-0.100000)"
fill="#000000" stroke="none">
<path d="M335 4401 c-53 -13 -112 -49 -144 -88 -65 -78 -61 51 -61 -2028 0
-1661 2 -1898 15 -1942 21 -70 84 -134 159 -162 57 -21 61 -21 1036 -21 943 0
982 1 1030 19 69 26 112 61 146 118 l29 48 0 870 0 870 -70 0 -70 0 -5 -460
c-3 -253 -7 -461 -8 -462 -1 -2 -474 -3 -1052 -3 l-1050 0 0 1505 c0 1637 -3
1547 55 1573 19 9 266 12 998 12 945 0 973 -1 1004 -20 44 -26 53 -67 53 -237
l0 -143 75 0 75 0 0 168 c0 92 -5 184 -10 204 -16 57 -70 120 -130 153 l-55
30 -995 2 c-547 0 -1008 -2 -1025 -6z m2060 -3424 c4 -13 5 -149 3 -303 -3
-304 -5 -316 -64 -342 -37 -17 -1952 -17 -1989 0 -52 24 -55 41 -55 368 l0
300 1050 0 1050 0 5 -23z"/>
<path d="M1135 715 c-31 -30 -32 -73 -5 -103 20 -21 28 -22 210 -22 177 0 191
1 210 20 30 30 27 83 -6 109 -25 19 -40 21 -206 21 -177 0 -179 0 -203 -25z"/>
<path d="M1395 3575 l-25 -24 0 -585 0 -585 24 -28 24 -28 834 -3 c458 -1 843
0 856 3 12 3 31 14 42 25 19 19 20 36 20 610 l0 591 -25 24 -24 25 -851 0
-851 0 -24 -25z m1457 -140 c1 -5 -81 -76 -183 -158 -101 -82 -228 -184 -281
-228 -53 -43 -103 -81 -110 -84 -8 -3 -90 56 -190 138 -97 79 -228 185 -292
236 -64 51 -113 97 -110 102 8 13 1163 7 1166 -6z m-1167 -208 c538 -434 555
-447 583 -447 15 0 39 8 52 17 24 16 212 167 531 425 80 65 151 118 157 118 9
0 12 -105 10 -427 l-3 -428 -742 -3 -743 -2 0 430 c0 236 3 430 8 430 4 0 70
-51 147 -113z"/>
</g>
</svg>
